<svg height="496pt" viewBox="0 0 496 496" width="496pt" xmlns="http://www.w3.org/2000/svg"><path d="m470.488281 332.6875 11.671875-20.230469-42.625-42.609375-20.230468 11.671875c-2.367188-1.105469-4.753907-2.09375-7.136719-2.992187l-6.03125-22.527344h-6.136719v-72c0-2.734375-.28125-5.414062-.808594-8h48.808594c26.472656 0 48-21.527344 48-48 0-23.929688-17.617188-43.761719-40.542969-47.359375.34375-2.863281.542969-5.746094.542969-8.640625 0-39.703125-32.304688-72-72-72-28.425781 0-53.777344 16.550781-65.398438 41.9375-4.753906-1.289062-9.632812-1.9375-14.601562-1.9375-25.296875 0-46.921875 16.640625-53.753906 40.375-23.757813 2.855469-42.246094 23.105469-42.246094 47.625 0 5.535156.984375 10.910156 2.785156 16h-170.785156c-22.054688 0-40 17.945312-40 40v240c0 22.054688 17.945312 40 40 40h254.296875l18.160156 18.160156 20.230469-11.671875c2.367188 1.105469 4.753906 2.097657 7.136719 2.992188l6.039062 22.519531h60.273438l6.039062-22.519531c2.382813-.894531 4.761719-1.886719 7.136719-2.992188l20.230469 11.671875 42.625-42.609375-11.671875-20.230469c1.097656-2.367187 2.097656-4.753906 2.992187-7.136718l22.511719-6.039063v-60.28125l-22.519531-6.039062c-.894531-2.382813-1.894531-4.769531-2.992188-7.136719zm-246.488281-204.6875c0-17.648438 14.351562-32 32-32s32 14.351562 32 32h16c0-22.726562-15.886719-41.769531-37.128906-46.710938 5.898437-15.015624 20.359375-25.289062 37.128906-25.289062 5.527344 0 10.921875 1.136719 16.015625 3.359375l8.0625 3.527344 2.746094-8.367188c7.566406-23.03125 28.9375-38.519531 53.175781-38.519531 30.878906 0 56 25.128906 56 56 0 2.976562-.3125 5.929688-.777344 8.839844-22.285156 4.144531-39.222656 23.695312-39.222656 47.160156h16c0-17.648438 14.351562-32 32-32s32 14.351562 32 32-14.351562 32-32 32h-56v.246094c-7.296875-9.796875-18.871094-16.246094-32-16.246094h-131.632812c-2.816407-4.855469-4.367188-10.289062-4.367188-16zm-184 320c-13.230469 0-24-10.769531-24-24v-240c0-13.230469 10.769531-24 24-24h320c13.230469 0 24 10.769531 24 24v72h-16v-80h-336v256h242.191406l-4.351562 7.542969 8.449218 8.457031zm241.511719-115.3125c-1.097657 2.367188-2.097657 4.753906-2.992188 7.136719l-22.519531 6.03125v11.480469l-30.398438-40.535157c-7.410156-9.878906-17.265624-17.480469-28.328124-22.425781l27.292968-38.199219c7.234375-10.128906 18.984375-16.175781 31.433594-16.175781s24.199219 6.046875 31.441406 16.175781l16.117188 22.558594-33.71875 33.714844zm-68.710938-6.289062 15.078125 20.113281c-4.480468 3.207031-8.292968 5.488281-15.902344 5.488281-8.410156 0-12.144531-2.710938-17.3125-6.472656-5.832031-4.246094-13.105468-9.527344-26.710937-9.527344-13.601563 0-20.863281 5.28125-26.707031 9.527344-5.167969 3.761718-8.894532 6.472656-17.285156 6.472656-7.585938 0-11.394532-2.273438-15.855469-5.472656l15.09375-20.128906c10.519531-14.023438 27.273437-22.398438 44.800781-22.398438s34.28125 8.375 44.800781 22.398438zm-114.3125 32.945312c5.648438 4.0625 12.792969 8.65625 25.472657 8.65625 13.597656 0 20.863281-5.28125 26.703124-9.527344 5.160157-3.761718 8.886719-6.472656 17.289063-6.472656 8.40625 0 12.144531 2.710938 17.3125 6.472656 5.839844 4.246094 13.101563 9.527344 26.710937 9.527344 12.703126 0 19.863282-4.601562 25.519532-8.671875l18.503906 24.671875v22.144531l22.519531 6.039063c.480469 1.28125 1.066407 2.542968 1.601563 3.824218h-224.121094zm221.457031-85.175781-19.488281-27.28125c-10.234375-14.335938-26.847656-22.886719-44.457031-22.886719s-34.222656 8.550781-44.457031 22.878906l-30.34375 42.480469c-4.328125-.824219-8.734375-1.359375-13.199219-1.359375-22.542969 0-44.070312 10.769531-57.601562 28.808594l-62.398438 83.199218v-208.007812h304v64h-6.136719l-6.039062 22.519531c-2.382813.894531-4.761719 1.886719-7.136719 2.992188zm160.054688 119.6875-18.953125 5.089843-1.335937 4.132813c-1.390626 4.289063-3.207032 8.632813-5.390626 12.90625l-1.984374 3.871094 9.839843 17.046875-25.265625 25.265625-17.046875-9.832031-3.871093 1.976562c-4.289063 2.191406-8.632813 4.007812-12.914063 5.398438l-4.132813 1.34375-5.082031 18.945312h-35.726562l-5.082031-18.945312-4.132813-1.34375c-4.289063-1.390626-8.632813-3.199219-12.914063-5.398438l-3.871093-1.976562-17.046875 9.832031-25.265625-25.265625 9.839843-17.046875-1.984374-3.871094c-2.183594-4.273437-4-8.617187-5.390626-12.90625l-1.335937-4.132813-18.953125-5.089843v-35.71875l18.953125-5.089844 1.335937-4.136719c1.390626-4.285156 3.207032-8.628906 5.390626-12.902344l1.984374-3.871093-9.839843-17.046875 25.265625-25.265625 17.046875 9.832031 3.871093-1.976562c4.289063-2.191407 8.632813-4.007813 12.914063-5.398438l4.132813-1.34375 5.082031-18.9375h35.726562l5.082031 18.945312 4.132813 1.34375c4.289063 1.390626 8.632813 3.199219 12.914063 5.398438l3.871093 1.976562 17.046875-9.832031 25.265625 25.265625-9.839843 17.046875 1.984374 3.871094c2.183594 4.273437 4 8.617187 5.390626 12.90625l1.335937 4.132813 18.953125 5.089843zm0 0"/><path d="m376 304c-39.695312 0-72 32.296875-72 72s32.304688 72 72 72 72-32.296875 72-72-32.304688-72-72-72zm0 128c-30.878906 0-56-25.128906-56-56s25.121094-56 56-56 56 25.128906 56 56-25.121094 56-56 56zm0 0"/><path d="m376 336c-22.054688 0-40 17.945312-40 40s17.945312 40 40 40 40-17.945312 40-40-17.945312-40-40-40zm0 64c-13.230469 0-24-10.769531-24-24s10.769531-24 24-24 24 10.769531 24 24-10.769531 24-24 24zm0 0"/><path d="m104 208c-22.054688 0-40 17.945312-40 40s17.945312 40 40 40 40-17.945312 40-40-17.945312-40-40-40zm0 64c-13.230469 0-24-10.769531-24-24s10.769531-24 24-24 24 10.769531 24 24-10.769531 24-24 24zm0 0"/></svg>